<mxfile host="app.diagrams.net" agent="Mozilla/5.0 (Windows NT 10.0; Win64; x64) AppleWebKit/537.36 (KHTML, like Gecko) Chrome/137.0.0.0 Safari/537.36 Edg/137.0.0.0" version="27.1.1">
  <diagram name="Pagina-1" id="qMUtZ8RJIn8pZScvzkca">
    <mxGraphModel dx="591" dy="309" grid="1" gridSize="10" guides="1" tooltips="1" connect="1" arrows="1" fold="1" page="1" pageScale="1" pageWidth="827" pageHeight="1169" math="0" shadow="0">
      <root>
        <mxCell id="0" />
        <mxCell id="1" parent="0" />
        <mxCell id="1SwVt7GDCJ-iK8WMoPdM-1" value="" style="ellipse;whiteSpace=wrap;html=1;aspect=fixed;fontFamily=Times New Roman;" vertex="1" parent="1">
          <mxGeometry x="385" y="415" width="10" height="10" as="geometry" />
        </mxCell>
        <mxCell id="1SwVt7GDCJ-iK8WMoPdM-2" style="edgeStyle=orthogonalEdgeStyle;rounded=0;orthogonalLoop=1;jettySize=auto;html=1;exitX=0.5;exitY=1;exitDx=0;exitDy=0;endArrow=none;startFill=0;entryX=0.5;entryY=0;entryDx=0;entryDy=0;" edge="1" parent="1" target="1SwVt7GDCJ-iK8WMoPdM-4">
          <mxGeometry relative="1" as="geometry">
            <mxPoint x="329.85727272727263" y="405" as="targetPoint" />
            <mxPoint x="329.88" y="395" as="sourcePoint" />
          </mxGeometry>
        </mxCell>
        <mxCell id="1SwVt7GDCJ-iK8WMoPdM-3" value="&lt;font&gt;Importo&lt;/font&gt;&lt;div&gt;&lt;font&gt;Offerta max&lt;/font&gt;&lt;/div&gt;" style="text;html=1;align=center;verticalAlign=middle;resizable=0;points=[];autosize=1;strokeColor=none;fillColor=none;fontFamily=Times New Roman;fontSize=12;fontColor=default;labelBackgroundColor=default;" vertex="1" parent="1">
          <mxGeometry x="220" y="410" width="80" height="40" as="geometry" />
        </mxCell>
        <mxCell id="1SwVt7GDCJ-iK8WMoPdM-4" value="" style="ellipse;whiteSpace=wrap;html=1;aspect=fixed;fontFamily=Times New Roman;" vertex="1" parent="1">
          <mxGeometry x="325" y="415" width="10" height="10" as="geometry" />
        </mxCell>
        <mxCell id="1SwVt7GDCJ-iK8WMoPdM-5" value="&lt;font&gt;Numero&lt;br&gt;Offerte&lt;/font&gt;" style="text;html=1;align=center;verticalAlign=middle;resizable=0;points=[];autosize=1;strokeColor=none;fillColor=none;fontFamily=Times New Roman;fontSize=12;fontColor=default;labelBackgroundColor=default;" vertex="1" parent="1">
          <mxGeometry x="310" y="420" width="60" height="40" as="geometry" />
        </mxCell>
        <mxCell id="1SwVt7GDCJ-iK8WMoPdM-6" value="&lt;font&gt;Tempo&lt;/font&gt;&lt;div&gt;&lt;font&gt;Mancante&lt;/font&gt;&lt;/div&gt;" style="text;html=1;align=center;verticalAlign=middle;resizable=0;points=[];autosize=1;strokeColor=none;fillColor=none;fontFamily=Times New Roman;fontSize=12;fontColor=default;labelBackgroundColor=default;" vertex="1" parent="1">
          <mxGeometry x="360" y="420" width="70" height="40" as="geometry" />
        </mxCell>
        <mxCell id="1SwVt7GDCJ-iK8WMoPdM-7" value="(0,n)" style="text;html=1;align=center;verticalAlign=middle;resizable=0;points=[];autosize=1;strokeColor=none;fillColor=none;fontFamily=Times New Roman;fontSize=11;fontColor=default;labelBackgroundColor=default;" vertex="1" parent="1">
          <mxGeometry x="400" y="350" width="40" height="30" as="geometry" />
        </mxCell>
        <mxCell id="1SwVt7GDCJ-iK8WMoPdM-8" value="(1,1)" style="text;html=1;align=center;verticalAlign=middle;resizable=0;points=[];autosize=1;strokeColor=none;fillColor=none;fontFamily=Times New Roman;fontSize=11;fontColor=default;labelBackgroundColor=default;" vertex="1" parent="1">
          <mxGeometry x="275" y="390" width="40" height="30" as="geometry" />
        </mxCell>
        <mxCell id="1SwVt7GDCJ-iK8WMoPdM-9" value="" style="edgeStyle=orthogonalEdgeStyle;elbow=vertical;endArrow=none;html=1;curved=1;rounded=0;endSize=8;startSize=8;strokeColor=default;align=center;verticalAlign=middle;fontFamily=Times New Roman;fontSize=7;fontColor=default;labelBackgroundColor=default;autosize=1;resizable=0;startFill=0;exitDx=0;exitDy=0;exitPerimeter=0;" edge="1" parent="1">
          <mxGeometry width="50" height="50" relative="1" as="geometry">
            <mxPoint x="655" y="410" as="sourcePoint" />
            <mxPoint x="655" y="409" as="targetPoint" />
          </mxGeometry>
        </mxCell>
        <mxCell id="1SwVt7GDCJ-iK8WMoPdM-10" value="(0,n)" style="text;html=1;align=center;verticalAlign=middle;resizable=0;points=[];autosize=1;strokeColor=none;fillColor=none;fontFamily=Times New Roman;fontSize=11;fontColor=default;labelBackgroundColor=default;" vertex="1" parent="1">
          <mxGeometry x="325" y="385" width="40" height="30" as="geometry" />
        </mxCell>
        <mxCell id="1SwVt7GDCJ-iK8WMoPdM-11" value="(0,1)" style="text;html=1;align=center;verticalAlign=middle;resizable=0;points=[];autosize=1;strokeColor=none;fillColor=none;fontFamily=Times New Roman;fontSize=11;fontColor=default;labelBackgroundColor=default;" vertex="1" parent="1">
          <mxGeometry x="380" y="390" width="40" height="30" as="geometry" />
        </mxCell>
        <mxCell id="1SwVt7GDCJ-iK8WMoPdM-12" value="Oggetto in vendita" style="whiteSpace=wrap;html=1;align=center;" vertex="1" parent="1">
          <mxGeometry x="140" y="355" width="270" height="40" as="geometry" />
        </mxCell>
        <mxCell id="1SwVt7GDCJ-iK8WMoPdM-13" value="Dimensioni" style="ellipse;whiteSpace=wrap;html=1;align=center;fontSize=10;fontFamily=Times New Roman;" vertex="1" parent="1">
          <mxGeometry x="50" y="425" width="70" height="20" as="geometry" />
        </mxCell>
        <mxCell id="1SwVt7GDCJ-iK8WMoPdM-14" style="edgeStyle=orthogonalEdgeStyle;rounded=0;orthogonalLoop=1;jettySize=auto;html=1;exitX=0.5;exitY=0;exitDx=0;exitDy=0;entryX=1;entryY=1;entryDx=0;entryDy=0;endArrow=none;startFill=0;" edge="1" parent="1" source="1SwVt7GDCJ-iK8WMoPdM-15" target="1SwVt7GDCJ-iK8WMoPdM-13">
          <mxGeometry relative="1" as="geometry" />
        </mxCell>
        <mxCell id="1SwVt7GDCJ-iK8WMoPdM-15" value="" style="ellipse;whiteSpace=wrap;html=1;" vertex="1" parent="1">
          <mxGeometry x="105" y="455" width="10" height="10" as="geometry" />
        </mxCell>
        <mxCell id="1SwVt7GDCJ-iK8WMoPdM-16" value="Altezza" style="text;html=1;align=center;verticalAlign=middle;resizable=0;points=[];autosize=1;strokeColor=none;fillColor=none;fontFamily=Times New Roman;fontSize=12;" vertex="1" parent="1">
          <mxGeometry x="50" y="455" width="60" height="30" as="geometry" />
        </mxCell>
        <mxCell id="1SwVt7GDCJ-iK8WMoPdM-17" value="Larghezza" style="text;whiteSpace=wrap;html=1;fontSize=12;fontFamily=Times New Roman;" vertex="1" parent="1">
          <mxGeometry x="10" y="450" width="40" height="20" as="geometry" />
        </mxCell>
        <mxCell id="1SwVt7GDCJ-iK8WMoPdM-18" value="" style="ellipse;whiteSpace=wrap;html=1;fillColor=#000000;" vertex="1" parent="1">
          <mxGeometry x="170" y="330" width="10" height="10" as="geometry" />
        </mxCell>
        <mxCell id="1SwVt7GDCJ-iK8WMoPdM-19" value="" style="ellipse;whiteSpace=wrap;html=1;" vertex="1" parent="1">
          <mxGeometry x="385" y="335" width="10" height="10" as="geometry" />
        </mxCell>
        <mxCell id="1SwVt7GDCJ-iK8WMoPdM-20" value="&lt;font style=&quot;font-size: 9px;&quot;&gt;Descrizione&lt;/font&gt;" style="text;html=1;align=center;verticalAlign=middle;resizable=0;points=[];autosize=1;strokeColor=none;fillColor=none;fontFamily=Times New Roman;" vertex="1" parent="1">
          <mxGeometry x="355" y="310" width="70" height="30" as="geometry" />
        </mxCell>
        <mxCell id="1SwVt7GDCJ-iK8WMoPdM-21" value="" style="ellipse;whiteSpace=wrap;html=1;" vertex="1" parent="1">
          <mxGeometry x="75" y="455" width="10" height="10" as="geometry" />
        </mxCell>
        <mxCell id="1SwVt7GDCJ-iK8WMoPdM-22" value="&lt;font style=&quot;font-size: 9px;&quot;&gt;prezzo base&lt;/font&gt;" style="text;html=1;align=center;verticalAlign=middle;resizable=0;points=[];autosize=1;strokeColor=none;fillColor=none;fontFamily=Times New Roman;" vertex="1" parent="1">
          <mxGeometry x="65" y="340" width="70" height="30" as="geometry" />
        </mxCell>
        <mxCell id="1SwVt7GDCJ-iK8WMoPdM-23" value="&lt;font style=&quot;font-size: 9px;&quot; face=&quot;Times New Roman&quot;&gt;Stato&lt;/font&gt;" style="text;html=1;align=center;verticalAlign=middle;resizable=0;points=[];autosize=1;strokeColor=none;fillColor=none;" vertex="1" parent="1">
          <mxGeometry x="85" y="360" width="40" height="30" as="geometry" />
        </mxCell>
        <mxCell id="1SwVt7GDCJ-iK8WMoPdM-24" value="Lunghezza" style="text;html=1;align=center;verticalAlign=middle;resizable=0;points=[];autosize=1;strokeColor=none;fillColor=none;fontFamily=Times New Roman;fontSize=12;" vertex="1" parent="1">
          <mxGeometry x="90" y="455" width="80" height="30" as="geometry" />
        </mxCell>
        <mxCell id="1SwVt7GDCJ-iK8WMoPdM-25" style="edgeStyle=orthogonalEdgeStyle;rounded=0;orthogonalLoop=1;jettySize=auto;html=1;exitX=1;exitY=0.5;exitDx=0;exitDy=0;entryX=0;entryY=0.5;entryDx=0;entryDy=0;endArrow=none;startFill=0;" edge="1" parent="1" source="1SwVt7GDCJ-iK8WMoPdM-26" target="1SwVt7GDCJ-iK8WMoPdM-27">
          <mxGeometry relative="1" as="geometry" />
        </mxCell>
        <mxCell id="1SwVt7GDCJ-iK8WMoPdM-26" value="Appartenenza" style="shape=rhombus;perimeter=rhombusPerimeter;whiteSpace=wrap;html=1;align=center;fontFamily=Times New Roman;" vertex="1" parent="1">
          <mxGeometry x="380" y="455" width="120" height="60" as="geometry" />
        </mxCell>
        <mxCell id="1SwVt7GDCJ-iK8WMoPdM-27" value="Categoria&amp;nbsp;" style="whiteSpace=wrap;html=1;align=center;fontFamily=Times New Roman;" vertex="1" parent="1">
          <mxGeometry x="609.95" y="465" width="100" height="40" as="geometry" />
        </mxCell>
        <mxCell id="1SwVt7GDCJ-iK8WMoPdM-28" style="edgeStyle=orthogonalEdgeStyle;rounded=0;orthogonalLoop=1;jettySize=auto;html=1;exitX=0.5;exitY=1;exitDx=0;exitDy=0;entryX=0.25;entryY=0;entryDx=0;entryDy=0;endArrow=none;startFill=0;" edge="1" parent="1" source="1SwVt7GDCJ-iK8WMoPdM-29" target="1SwVt7GDCJ-iK8WMoPdM-27">
          <mxGeometry relative="1" as="geometry" />
        </mxCell>
        <mxCell id="1SwVt7GDCJ-iK8WMoPdM-29" value="" style="ellipse;whiteSpace=wrap;html=1;aspect=fixed;fillColor=#000000;fontFamily=Times New Roman;" vertex="1" parent="1">
          <mxGeometry x="630" y="437" width="10" height="10" as="geometry" />
        </mxCell>
        <mxCell id="1SwVt7GDCJ-iK8WMoPdM-30" value="(0,n)" style="text;html=1;align=center;verticalAlign=middle;resizable=0;points=[];autosize=1;strokeColor=none;fillColor=none;fontFamily=Times New Roman;fontSize=12;fontColor=default;labelBackgroundColor=default;" vertex="1" parent="1">
          <mxGeometry x="559.95" y="455" width="50" height="30" as="geometry" />
        </mxCell>
        <mxCell id="1SwVt7GDCJ-iK8WMoPdM-33" value="(0,n)" style="text;html=1;align=center;verticalAlign=middle;resizable=0;points=[];autosize=1;strokeColor=none;fillColor=none;fontFamily=Times New Roman;fontSize=12;fontColor=default;labelBackgroundColor=default;" vertex="1" parent="1">
          <mxGeometry x="680" y="590" width="50" height="30" as="geometry" />
        </mxCell>
        <mxCell id="1SwVt7GDCJ-iK8WMoPdM-34" value="&lt;font face=&quot;Times New Roman&quot;&gt;sottocategoria&lt;/font&gt;" style="text;html=1;align=center;verticalAlign=middle;resizable=0;points=[];autosize=1;strokeColor=none;fillColor=none;" vertex="1" parent="1">
          <mxGeometry x="720" y="495" width="90" height="30" as="geometry" />
        </mxCell>
        <mxCell id="1SwVt7GDCJ-iK8WMoPdM-35" value="&lt;span style=&quot;color: rgb(0, 0, 0); font-family: &amp;quot;Times New Roman&amp;quot;; font-size: 12px; font-style: normal; font-variant-ligatures: normal; font-variant-caps: normal; font-weight: 400; letter-spacing: normal; orphans: 2; text-align: center; text-indent: 0px; text-transform: none; widows: 2; word-spacing: 0px; -webkit-text-stroke-width: 0px; white-space: nowrap; background-color: rgb(255, 255, 255); text-decoration-thickness: initial; text-decoration-style: initial; text-decoration-color: initial; float: none; display: inline !important;&quot;&gt;(1,n)&lt;/span&gt;" style="text;whiteSpace=wrap;html=1;" vertex="1" parent="1">
          <mxGeometry x="549.95" y="590" width="60" height="40" as="geometry" />
        </mxCell>
        <mxCell id="1SwVt7GDCJ-iK8WMoPdM-36" value="&lt;font face=&quot;Times New Roman&quot;&gt;macrocategoria&lt;/font&gt;" style="text;html=1;align=center;verticalAlign=middle;resizable=0;points=[];autosize=1;strokeColor=none;fillColor=none;" vertex="1" parent="1">
          <mxGeometry x="449.95" y="530" width="100" height="30" as="geometry" />
        </mxCell>
        <mxCell id="1SwVt7GDCJ-iK8WMoPdM-39" value="Nome categoria" style="text;html=1;align=center;verticalAlign=middle;resizable=0;points=[];autosize=1;strokeColor=none;fillColor=none;fontFamily=Times New Roman;" vertex="1" parent="1">
          <mxGeometry x="590" y="415" width="100" height="30" as="geometry" />
        </mxCell>
        <mxCell id="1SwVt7GDCJ-iK8WMoPdM-40" style="edgeStyle=orthogonalEdgeStyle;rounded=0;orthogonalLoop=1;jettySize=auto;html=1;exitX=0.5;exitY=0;exitDx=0;exitDy=0;entryX=0.428;entryY=1.002;entryDx=0;entryDy=0;entryPerimeter=0;endArrow=none;startFill=0;" edge="1" parent="1" source="1SwVt7GDCJ-iK8WMoPdM-21" target="1SwVt7GDCJ-iK8WMoPdM-13">
          <mxGeometry relative="1" as="geometry" />
        </mxCell>
        <mxCell id="1SwVt7GDCJ-iK8WMoPdM-41" style="edgeStyle=orthogonalEdgeStyle;rounded=0;orthogonalLoop=1;jettySize=auto;html=1;exitX=1;exitY=0.5;exitDx=0;exitDy=0;entryX=0;entryY=0.25;entryDx=0;entryDy=0;endArrow=none;startFill=0;" edge="1" parent="1" source="1SwVt7GDCJ-iK8WMoPdM-42" target="1SwVt7GDCJ-iK8WMoPdM-12">
          <mxGeometry relative="1" as="geometry" />
        </mxCell>
        <mxCell id="1SwVt7GDCJ-iK8WMoPdM-42" value="" style="ellipse;whiteSpace=wrap;html=1;" vertex="1" parent="1">
          <mxGeometry x="115" y="360" width="10" height="10" as="geometry" />
        </mxCell>
        <mxCell id="1SwVt7GDCJ-iK8WMoPdM-43" value="inizio asta" style="ellipse;whiteSpace=wrap;html=1;align=center;fontSize=10;fontFamily=Times New Roman;" vertex="1" parent="1">
          <mxGeometry x="155" y="440" width="80" height="30" as="geometry" />
        </mxCell>
        <mxCell id="1SwVt7GDCJ-iK8WMoPdM-44" style="edgeStyle=orthogonalEdgeStyle;rounded=0;orthogonalLoop=1;jettySize=auto;html=1;exitX=0.5;exitY=0;exitDx=0;exitDy=0;entryX=0.205;entryY=1.029;entryDx=0;entryDy=0;entryPerimeter=0;endArrow=none;startFill=0;" edge="1" parent="1" source="1SwVt7GDCJ-iK8WMoPdM-43" target="1SwVt7GDCJ-iK8WMoPdM-12">
          <mxGeometry relative="1" as="geometry" />
        </mxCell>
        <mxCell id="1SwVt7GDCJ-iK8WMoPdM-45" value="" style="ellipse;whiteSpace=wrap;html=1;" vertex="1" parent="1">
          <mxGeometry x="170" y="485" width="10" height="10" as="geometry" />
        </mxCell>
        <mxCell id="1SwVt7GDCJ-iK8WMoPdM-46" value="" style="ellipse;whiteSpace=wrap;html=1;" vertex="1" parent="1">
          <mxGeometry x="200" y="485" width="10" height="10" as="geometry" />
        </mxCell>
        <mxCell id="1SwVt7GDCJ-iK8WMoPdM-47" value="data" style="text;html=1;align=center;verticalAlign=middle;resizable=0;points=[];autosize=1;strokeColor=none;fillColor=none;fontFamily=Times New Roman;fontSize=12;" vertex="1" parent="1">
          <mxGeometry x="150" y="485" width="40" height="30" as="geometry" />
        </mxCell>
        <mxCell id="1SwVt7GDCJ-iK8WMoPdM-48" value="orario" style="text;html=1;align=center;verticalAlign=middle;resizable=0;points=[];autosize=1;strokeColor=none;fillColor=none;fontFamily=Times New Roman;fontSize=12;" vertex="1" parent="1">
          <mxGeometry x="180" y="485" width="50" height="30" as="geometry" />
        </mxCell>
        <mxCell id="1SwVt7GDCJ-iK8WMoPdM-49" value="" style="ellipse;whiteSpace=wrap;html=1;aspect=fixed;fontFamily=Times New Roman;" vertex="1" parent="1">
          <mxGeometry x="115" y="375" width="10" height="10" as="geometry" />
        </mxCell>
        <mxCell id="1SwVt7GDCJ-iK8WMoPdM-50" style="edgeStyle=orthogonalEdgeStyle;rounded=0;orthogonalLoop=1;jettySize=auto;html=1;exitX=0.5;exitY=0;exitDx=0;exitDy=0;entryX=0.25;entryY=1;entryDx=0;entryDy=0;endArrow=none;startFill=0;fontFamily=Times New Roman;" edge="1" parent="1">
          <mxGeometry relative="1" as="geometry">
            <mxPoint x="250" y="395" as="targetPoint" />
            <mxPoint x="250" y="410" as="sourcePoint" />
          </mxGeometry>
        </mxCell>
        <mxCell id="1SwVt7GDCJ-iK8WMoPdM-51" value="" style="ellipse;whiteSpace=wrap;html=1;aspect=fixed;fontFamily=Times New Roman;" vertex="1" parent="1">
          <mxGeometry x="245" y="410" width="10" height="10" as="geometry" />
        </mxCell>
        <mxCell id="1SwVt7GDCJ-iK8WMoPdM-52" value="" style="ellipse;whiteSpace=wrap;html=1;" vertex="1" parent="1">
          <mxGeometry x="50" y="451.4" width="10" height="10" as="geometry" />
        </mxCell>
        <mxCell id="1SwVt7GDCJ-iK8WMoPdM-53" style="edgeStyle=orthogonalEdgeStyle;rounded=0;orthogonalLoop=1;jettySize=auto;html=1;exitX=0.5;exitY=0;exitDx=0;exitDy=0;entryX=0.085;entryY=0.768;entryDx=0;entryDy=0;entryPerimeter=0;endArrow=none;startFill=0;" edge="1" parent="1" source="1SwVt7GDCJ-iK8WMoPdM-52" target="1SwVt7GDCJ-iK8WMoPdM-13">
          <mxGeometry relative="1" as="geometry" />
        </mxCell>
        <mxCell id="1SwVt7GDCJ-iK8WMoPdM-54" style="edgeStyle=orthogonalEdgeStyle;rounded=0;orthogonalLoop=1;jettySize=auto;html=1;exitX=0.5;exitY=1;exitDx=0;exitDy=0;entryX=0.13;entryY=0.011;entryDx=0;entryDy=0;entryPerimeter=0;endArrow=none;startFill=0;" edge="1" parent="1" source="1SwVt7GDCJ-iK8WMoPdM-18" target="1SwVt7GDCJ-iK8WMoPdM-12">
          <mxGeometry relative="1" as="geometry" />
        </mxCell>
        <mxCell id="1SwVt7GDCJ-iK8WMoPdM-55" style="edgeStyle=orthogonalEdgeStyle;rounded=0;orthogonalLoop=1;jettySize=auto;html=1;exitX=0.5;exitY=0;exitDx=0;exitDy=0;entryX=0.247;entryY=0.929;entryDx=0;entryDy=0;entryPerimeter=0;endArrow=none;startFill=0;" edge="1" parent="1" source="1SwVt7GDCJ-iK8WMoPdM-45" target="1SwVt7GDCJ-iK8WMoPdM-43">
          <mxGeometry relative="1" as="geometry" />
        </mxCell>
        <mxCell id="1SwVt7GDCJ-iK8WMoPdM-56" style="edgeStyle=orthogonalEdgeStyle;rounded=0;orthogonalLoop=1;jettySize=auto;html=1;exitX=0.5;exitY=0;exitDx=0;exitDy=0;entryX=0.624;entryY=1.006;entryDx=0;entryDy=0;entryPerimeter=0;endArrow=none;startFill=0;" edge="1" parent="1" source="1SwVt7GDCJ-iK8WMoPdM-46" target="1SwVt7GDCJ-iK8WMoPdM-43">
          <mxGeometry relative="1" as="geometry" />
        </mxCell>
        <mxCell id="1SwVt7GDCJ-iK8WMoPdM-57" style="edgeStyle=orthogonalEdgeStyle;rounded=0;orthogonalLoop=1;jettySize=auto;html=1;exitX=1;exitY=0.5;exitDx=0;exitDy=0;entryX=0.001;entryY=0.636;entryDx=0;entryDy=0;entryPerimeter=0;endArrow=none;startFill=0;" edge="1" parent="1" source="1SwVt7GDCJ-iK8WMoPdM-49" target="1SwVt7GDCJ-iK8WMoPdM-12">
          <mxGeometry relative="1" as="geometry" />
        </mxCell>
        <mxCell id="1SwVt7GDCJ-iK8WMoPdM-58" style="edgeStyle=orthogonalEdgeStyle;rounded=0;orthogonalLoop=1;jettySize=auto;html=1;exitX=0.5;exitY=0;exitDx=0;exitDy=0;entryX=0.001;entryY=0.878;entryDx=0;entryDy=0;entryPerimeter=0;endArrow=none;startFill=0;" edge="1" parent="1" source="1SwVt7GDCJ-iK8WMoPdM-13" target="1SwVt7GDCJ-iK8WMoPdM-12">
          <mxGeometry relative="1" as="geometry" />
        </mxCell>
        <mxCell id="1SwVt7GDCJ-iK8WMoPdM-59" style="edgeStyle=orthogonalEdgeStyle;rounded=0;orthogonalLoop=1;jettySize=auto;html=1;exitX=0.5;exitY=1;exitDx=0;exitDy=0;entryX=0.926;entryY=0.003;entryDx=0;entryDy=0;entryPerimeter=0;endArrow=none;startFill=0;" edge="1" parent="1" source="1SwVt7GDCJ-iK8WMoPdM-19" target="1SwVt7GDCJ-iK8WMoPdM-12">
          <mxGeometry relative="1" as="geometry" />
        </mxCell>
        <mxCell id="1SwVt7GDCJ-iK8WMoPdM-60" style="edgeStyle=orthogonalEdgeStyle;rounded=0;orthogonalLoop=1;jettySize=auto;html=1;exitX=0.5;exitY=0;exitDx=0;exitDy=0;entryX=0.927;entryY=1.01;entryDx=0;entryDy=0;entryPerimeter=0;endArrow=none;startFill=0;" edge="1" parent="1" source="1SwVt7GDCJ-iK8WMoPdM-1" target="1SwVt7GDCJ-iK8WMoPdM-12">
          <mxGeometry relative="1" as="geometry" />
        </mxCell>
        <mxCell id="1SwVt7GDCJ-iK8WMoPdM-61" style="edgeStyle=orthogonalEdgeStyle;rounded=0;orthogonalLoop=1;jettySize=auto;html=1;exitX=0;exitY=0.5;exitDx=0;exitDy=0;entryX=0.632;entryY=1.016;entryDx=0;entryDy=0;entryPerimeter=0;endArrow=none;startFill=0;" edge="1" parent="1" source="1SwVt7GDCJ-iK8WMoPdM-26" target="1SwVt7GDCJ-iK8WMoPdM-12">
          <mxGeometry relative="1" as="geometry" />
        </mxCell>
        <mxCell id="1SwVt7GDCJ-iK8WMoPdM-63" style="edgeStyle=orthogonalEdgeStyle;rounded=0;orthogonalLoop=1;jettySize=auto;html=1;exitX=1;exitY=0.5;exitDx=0;exitDy=0;entryX=1;entryY=0.5;entryDx=0;entryDy=0;endArrow=none;startFill=0;" edge="1" parent="1" source="1SwVt7GDCJ-iK8WMoPdM-62" target="1SwVt7GDCJ-iK8WMoPdM-27">
          <mxGeometry relative="1" as="geometry" />
        </mxCell>
        <mxCell id="1SwVt7GDCJ-iK8WMoPdM-64" style="edgeStyle=orthogonalEdgeStyle;rounded=0;orthogonalLoop=1;jettySize=auto;html=1;exitX=0;exitY=0.5;exitDx=0;exitDy=0;entryX=0;entryY=0.75;entryDx=0;entryDy=0;endArrow=none;startFill=0;" edge="1" parent="1" source="1SwVt7GDCJ-iK8WMoPdM-62" target="1SwVt7GDCJ-iK8WMoPdM-27">
          <mxGeometry relative="1" as="geometry" />
        </mxCell>
        <mxCell id="1SwVt7GDCJ-iK8WMoPdM-62" value="Gerarchia" style="shape=rhombus;perimeter=rhombusPerimeter;whiteSpace=wrap;html=1;align=center;fontFamily=Times New Roman;" vertex="1" parent="1">
          <mxGeometry x="570" y="590" width="120" height="60" as="geometry" />
        </mxCell>
        <mxCell id="1SwVt7GDCJ-iK8WMoPdM-65" value="&lt;font style=&quot;font-size: 9px;&quot;&gt;Codice&lt;/font&gt;" style="text;html=1;align=center;verticalAlign=middle;resizable=0;points=[];autosize=1;strokeColor=none;fillColor=none;fontFamily=Times New Roman;" vertex="1" parent="1">
          <mxGeometry x="150" y="305" width="50" height="30" as="geometry" />
        </mxCell>
      </root>
    </mxGraphModel>
  </diagram>
</mxfile>
